{"title":"Superman Shazam The Return of Black Adam.720p.BRRip Feel-Free","uid":5949344,"size":339925591,"categoryP":"video","categoryS":"hd___movies","magnet":"?xt=urn:btih:3b24f704b893ec8e8414937830dff0202d3ae958&amp;dn=Superman+Shazam+The+Return+of+Black+Adam.720p.BRRip+Feel-Free&amp;tr=udp%3A%2F%2Ftracker.openbittorrent.com%3A80&amp;tr=udp%3A%2F%2Fopen.demonii.com%3A1337&amp;tr=udp%3A%2F%2Ftracker.coppersurfer.tk%3A6969&amp;tr=udp%3A%2F%2Fexodus.desync.com%3A6969","seeders":4,"leechers":6,"uploader":"neon","files":7,"time":1289471296,"description":"Genre:Animation | Short | Action | Adventure\nLanguage:English\n &lt;a href=&quot; http://www.imdb.com/title/tt1701223/&quot; rel=&quot;nofollow&quot; target=&quot;_NEW&quot;&gt; http://www.imdb.com/title/tt1701223/&lt;/a&gt;\nSource:1080p.BluRay.x264-aAF\n\nGeneral\nComplete name :Superman.Shazam.The.Return.of.Black.Adam.720p.BRRip.H264.Feel-Free\nFormat : MPEG-4\nFormat profile : Base Media / Version 2\nCodec ID : mp42\nFile size : 321 MiB\nDuration : 24mn 26s\nOverall bit rate : 1 837 Kbps\nVideo #1\nCodec ID : avc1\nCodec ID/Info : Advanced Video Coding\nDuration : 24mn 26s\nBit rate mode : Variable\nBit rate : 1 260 Kbps\nWidth : 1 280 pixels\nHeight : 720 pixels\nDisplay aspect ratio : 16:9\nFrame rate mode : Constant\nFrame rate : 23.976 fps\nResolution : 24 bits\nColorimetry : 4:2:0\nScan type : Progressive\nBits/(Pixel*Frame) : 0.057\nStream size : 220 MiB (69%)\nAudio #2\nID : 2\nFormat : AAC\nFormat/Info : Advanced Audio Codec\nFormat version : Version 4\nFormat profile : LC\nFormat settings, SBR : No\nCodec ID : 40\nDuration : 24mn 26s\nBit rate mode : Constant\nBit rate : 576 Kbps\nChannel(s) : 6 channels\nChannel positions : Front: L C R, Rear: L R, LFE\nSampling rate : 48.0 KHz\nResolution : 16 bits\nStream size : 100 MiB (31%)\n\nPlot:\nSuperman finds a foe who may be too powerful even for him to defeat in the murderous Black Adam. Fortunately, Black Adam's real target is the Earth's Mightiest Mortal--Captain Marvel.\n\n","torrent":{"xt":"urn:btih:3b24f704b893ec8e8414937830dff0202d3ae958","amp;dn":"Superman+Shazam+The+Return+of+Black+Adam.720p.BRRip+Feel-Free","amp;tr":["udp%3A%2F%2Ftracker.openbittorrent.com%3A80","udp%3A%2F%2Fopen.demonii.com%3A1337","udp%3A%2F%2Ftracker.coppersurfer.tk%3A6969","udp%3A%2F%2Fexodus.desync.com%3A6969"],"infoHash":"3b24f704b893ec8e8414937830dff0202d3ae958","infoHashBuffer":{"type":"Buffer","data":[59,36,247,4,184,147,236,142,132,20,147,120,48,223,240,32,45,58,233,88]},"announce":[],"urlList":[]}}